:SAMPLES-PER-SECOND 24
:FULLY-SPECIFIED
:DEGREES
189
root  9.16401 38.9701 12.1459 12.3213 -63.3176 -5.25381
RightUpLeg  -9.16135 4.76719 -4.41107
RightLeg  26.0784 -5.16332 -2.97944
RightFoot  -16.623 0.231481 7.50215
RightToes  -2.08645e-008 3.77894e-005 6.81332e-007
Spine  0.120514 -0.626262 1.21081
Spine1  5.94252 -1.23794 2.77714
HEad  -41.0443 36.6932 -18.0315
LeftShoulder1  7.81793 -13.5438 -39.6741
LeftArm  -3.00892 28.2778 -31.3656
LeftForeArm  146.277 -75.7597 -137.779
LeftHand  -0.539744 -2.36129 8.29288
RightShoulder  4.33707 6.94028 35.6158
RightArm  10.4688 -22.0509 36.581
RightForeArm  97.3802 80.3257 88.1282
RightHand  -0.92757 5.60684 -10.077
LeftUpLeg  -18.2742 -0.484531 17.6744
LeftLeg  30.0925 16.3623 10.3488
LeftFoot  3.46107 1.54586 -11.9237
LeftToes  1.24767e-006 1.47042e-008 1.32732e-009
190
root  9.02702 39.9257 12.7287 13.5012 -65.5204 -4.90735
RightUpLeg  -8.94867 5.25419 -6.09593
RightLeg  21.271 -3.54305 -1.71122
RightFoot  -10.0843 -0.175659 9.33224
RightToes  -2.08645e-008 3.77894e-005 6.81332e-007
Spine  -1.6207 1.05906 2.23299
Spine1  5.47469 0.936438 0.519642
HEad  -38.3652 36.456 -16.6037
LeftShoulder1  7.48814 -13.2435 -38.5812
LeftArm  0.641519 33.0319 -30.0617
LeftForeArm  154.578 -73.9151 -144.177
LeftHand  -0.370047 -2.8335 5.45141
RightShoulder  4.27368 6.91359 35.1227
RightArm  13.2893 -23.9817 36.2592
RightForeArm  103.679 80.2887 94.6932
RightHand  -0.8748 5.70966 -9.44129
LeftUpLeg  -17.3473 5.53477 15.0475
LeftLeg  25.3192 10.628 5.79528
LeftFoot  1.69634 1.52657 -13.4402
LeftToes  1.24767e-006 1.47042e-008 1.32732e-009
191
root  8.97957 40.5909 13.4159 14.4995 -67.4544 -5.18002
RightUpLeg  -8.57917 4.27357 -7.30438
RightLeg  17.8185 -1.47067 -1.09605
RightFoot  -4.76776 -0.63594 10.4789
RightToes  -2.08645e-008 3.77894e-005 6.81332e-007
Spine  -1.926 2.2483 3.1288
Spine1  4.49213 2.45569 -0.966436
HEad  -37.2034 36.5054 -16.1281
LeftShoulder1  7.19404 -13.0128 -37.4704
LeftArm  3.9614 37.51 -27.7951
LeftForeArm  159.243 -71.8536 -149.014
LeftHand  -0.27759 -3.08008 4.04245
RightShoulder  4.1981 6.89101 34.4926
RightArm  17.369 -23.6013 35.2229
RightForeArm  106.468 80.2811 96.8757
RightHand  -0.82546 5.92712 -8.76918
LeftUpLeg  -16.0816 7.29408 13.0553
LeftLeg  21.9552 7.61217 3.69171
LeftFoot  0.174401 1.56499 -15.4549
LeftToes  1.24767e-006 1.47042e-008 1.32732e-009
192
root  9.03008 40.8322 14.1562 15.3313 -68.3524 -5.94089
RightUpLeg  -7.7094 1.35975 -7.87643
RightLeg  15.4812 1.60874 -1.12464
RightFoot  -1.93168 -0.917699 10.9579
RightToes  -2.08645e-008 3.77894e-005 6.81332e-007
Spine  -1.51549 2.60266 4.33351
Spine1  3.81355 3.11013 -2.41001
HEad  -37.2516 36.556 -16.1279
LeftShoulder1  7.01519 -12.942 -36.5982
LeftArm  6.82 40.7943 -24.6672
LeftForeArm  160.454 -70.2232 -151.798
LeftHand  -0.266741 -3.12049 3.87788
RightShoulder  4.09222 6.82652 33.7258
RightArm  20.8406 -21.5395 34.5978
RightForeArm  105.037 80.3252 95.1366
RightHand  -0.69185 6.49579 -7.08086
LeftUpLeg  -15.516 6.61852 11.535
LeftLeg  21.7161 8.70397 4.12747
LeftFoot  1.27644 1.59881 -14.4746
LeftToes  1.24767e-006 1.47042e-008 1.32732e-009
193
root  9.13966 40.6265 14.9009 15.5342 -68.6565 -6.21545
RightUpLeg  -6.94246 0.827067 -8.75351
RightLeg  14.6448 2.14668 -1.47202
RightFoot  -2.56691 -0.944191 12.0678
RightToes  -2.08645e-008 3.77894e-005 6.81332e-007
Spine  -1.27218 2.59658 4.79824
Spine1  3.88556 3.30073 -3.31129
HEad  -37.6726 36.3504 -16.5849
LeftShoulder1  6.90464 -12.9328 -35.9654
LeftArm  8.48851 41.9532 -22.3065
LeftForeArm  159.154 -70.0864 -151.814
LeftHand  -0.273997 -3.10486 3.9834
RightShoulder  3.98716 6.7549 32.9806
RightArm  21.8361 -19.4336 34.442
RightForeArm  98.4556 80.3707 88.2996
RightHand  -0.514677 6.7207 -5.26554
LeftUpLeg  -15.6304 6.42598 9.79528
LeftLeg  24.0277 9.65101 5.0001
LeftFoot  1.2451 1.54468 -14.0075
LeftToes  1.24767e-006 1.47042e-008 1.32732e-009
194
root  9.27756 40.016 15.6768 16.0745 -68.4608 -7.01389
RightUpLeg  -6.55139 4.18542 -9.65211
RightLeg  15.7562 -1.78742 -1.87562
RightFoot  -5.84432 -0.636742 12.3253
RightToes  -2.08645e-008 3.77894e-005 6.81332e-007
Spine  -0.807244 2.46393 4.81716
Spine1  4.10675 3.18845 -3.50953
HEad  -38.4654 36.1333 -17.5771
LeftShoulder1  6.82003 -12.8616 -35.6396
LeftArm  8.54472 40.7784 -21.793
LeftForeArm  156.559 -71.3244 -149.514
LeftHand  -0.297051 -3.18356 4.26451
RightShoulder  3.92237 6.69601 32.5698
RightArm  20.0444 -18.7522 34.5166
RightForeArm  85.7846 80.0802 75.9868
RightHand  -0.522489 6.44756 -5.45853
LeftUpLeg  -15.7531 6.34322 8.28112
LeftLeg  27.2208 10.2886 6.03231
LeftFoot  -3.87156 1.00543 -15.0718
LeftToes  1.24767e-006 1.47042e-008 1.32732e-009
195
root  9.44836 39.1463 16.526 16.0886 -67.5995 -7.36331
RightUpLeg  -7.04128 7.52386 -10.8666
RightLeg  19.5319 -5.65658 -2.43404
RightFoot  -10.4727 -0.17096 13.0751
RightToes  -2.08645e-008 3.77894e-005 6.81332e-007
Spine  -0.500903 1.97278 4.24272
Spine1  5.10027 2.58128 -3.41718
HEad  -40.3833 36.3046 -18.9698
LeftShoulder1  7.054 -12.9894 -36.7073
LeftArm  6.73566 37.3042 -21.9701
LeftForeArm  153.541 -72.731 -146.506
LeftHand  -0.345998 -3.16509 4.93733
RightShoulder  3.95698 6.70017 32.8938
RightArm  15.5937 -18.7673 34.8711
RightForeArm  62.4399 78.0361 53.8776
RightHand  -0.700441 6.565 -7.12634
LeftUpLeg  -15.777 5.0695 6.75382
LeftLeg  30.0143 11.8568 7.65415
LeftFoot  -11.7829 0.0126499 -14.8707
LeftToes  1.24767e-006 1.47042e-008 1.32732e-009
